<svg xmlns="http://www.w3.org/2000/svg" xmlns:xlink="http://www.w3.org/1999/xlink" viewBox="0 0 197.7 146.14"><defs><style>.cls-1{fill:#ff5c5c;}.cls-2{fill:url(#Gradiente_sem_nome_16);}.cls-3{fill:#fff;}</style><linearGradient id="Gradiente_sem_nome_16" x1="126.22" y1="145.87" x2="126.22" y2="0.07" gradientUnits="userSpaceOnUse"><stop offset="0" stop-color="#fff"/><stop offset="0.53" stop-color="#ff5c5c"/><stop offset="1" stop-color="#ff5c5c"/></linearGradient></defs><g id="Camada_2" data-name="Camada 2"><g id="Camada_1-2" data-name="Camada 1"><g id="_4" data-name="4"><path class="cls-1" d="M186.28,123a11.43,11.43,0,1,0,11.42,11.43A11.43,11.43,0,0,0,186.28,123Z"/><path class="cls-2" d="M165.35,68.37a48.64,48.64,0,0,0-64-12.88V14.8l-1.7-1.42L95.47,9.92,83.7.07a7,7,0,0,0-6.1,7V97.24A48.61,48.61,0,0,0,101,138.85l.25.15a48.63,48.63,0,0,0,64.06-70.63Zm-39.12,53.81a24.94,24.94,0,1,1,24.93-24.94A24.94,24.94,0,0,1,126.23,122.18Z"/><path class="cls-1" d="M101.3,7a7,7,0,0,0-7-7H89.89L101.3,9.57Z"/><path class="cls-3" d="M53.21,136,14.84,97.67l-.5-.5h-.09l.05,0L53.11,58.31a5.71,5.71,0,0,0,1-1.26,5.94,5.94,0,0,0,0-5.86,5.78,5.78,0,0,0-3.17-2.65,5.92,5.92,0,0,0-3.94,0,5.67,5.67,0,0,0-2.22,1.39L1.83,92.83l-.05,0-.05.05a3.17,3.17,0,0,0-.34.39A5.83,5.83,0,0,0,0,97.12v0H.11a4.19,4.19,0,0,0,0,.5H0a5.86,5.86,0,0,0,1.7,3.64l43.1,43.1a5.94,5.94,0,0,0,8.38,0,5.52,5.52,0,0,0,.85-1.09,5.94,5.94,0,0,0,0-6.2A5.83,5.83,0,0,0,53.21,136Z"/></g></g></g></svg>